<?xml version="1.0" standalone="no"?>
<!DOCTYPE svg PUBLIC "-//W3C//DTD SVG 20010904//EN"
 "http://www.w3.org/TR/2001/REC-SVG-20010904/DTD/svg10.dtd">
<svg version="1.0" xmlns="http://www.w3.org/2000/svg"
 width="362.000000pt" height="219.000000pt" viewBox="0 0 362.000000 219.000000"
 preserveAspectRatio="xMidYMid meet">

<g transform="translate(0.000000,219.000000) scale(0.100000,-0.100000)"
fill="#000000" stroke="none">
<path d="M1670 2083 c-283 -56 -1443 -319 -1469 -333 -48 -24 -85 -65 -110
-120 -20 -43 -21 -63 -21 -525 0 -446 2 -483 19 -520 23 -50 80 -107 129 -128
20 -9 359 -87 752 -174 l715 -157 135 0 135 0 715 158 c393 86 728 162 744
168 38 15 83 53 117 102 l29 39 0 512 0 513 -32 48 c-61 90 -50 87 -833 260
l-710 157 -145 3 c-80 1 -156 0 -170 -3z m43 -270 c-8 -2 -13 -22 -13 -44 0
-21 -4 -39 -10 -39 -5 0 -10 18 -10 39 0 22 -5 42 -12 44 -7 3 3 5 22 5 19 0
29 -2 23 -5z m92 -33 c17 0 25 7 28 23 2 12 4 0 4 -28 0 -27 -2 -40 -4 -27 -3
15 -11 22 -28 22 -17 0 -25 -7 -28 -22 -2 -13 -4 0 -4 27 0 28 2 40 4 28 3
-16 11 -23 28 -23z m128 33 c-27 -5 -31 -32 -5 -34 16 -1 16 -2 0 -6 -26 -6
-22 -31 5 -36 16 -3 13 -5 -10 -6 -33 -1 -33 0 -33 44 0 44 0 45 33 44 23 -1
26 -3 10 -6z m-595 -303 c23 -10 42 -24 42 -30 0 -6 -12 -29 -27 -51 -19 -28
-31 -38 -42 -33 -57 23 -97 15 -112 -23 -22 -60 31 -106 93 -80 l34 15 29 -46
29 -45 -23 -18 c-12 -10 -39 -23 -59 -29 -176 -49 -309 128 -213 283 44 71
159 98 249 57z m395 -10 c102 -70 109 -222 13 -295 -46 -35 -128 -51 -184 -36
-51 14 -110 64 -128 108 -26 60 -11 146 34 197 54 60 195 74 265 26z m369 20
c114 -32 162 -171 96 -278 -37 -59 -101 -78 -260 -74 l-68 2 0 173 c0 96 3
177 7 180 10 11 184 8 225 -3z m456 -42 l3 -47 -72 -3 c-47 -2 -74 -7 -77 -15
-3 -10 15 -13 67 -13 l71 0 0 -50 0 -50 -70 0 c-56 0 -70 -3 -70 -15 0 -12 16
-15 80 -15 l80 0 0 -50 0 -50 -145 0 -145 0 0 173 c0 96 3 177 7 181 4 3 66 5
137 4 l131 -3 3 -47z m-2130 -330 c17 -17 15 -73 -3 -88 -22 -18 -48 -8 -59
22 -19 53 27 101 62 66z m97 -43 c0 -49 -1 -50 -30 -50 -29 0 -30 2 -31 45 -2
56 2 62 34 58 25 -3 27 -6 27 -53z m2618 13 c-4 -32 -1 -45 13 -55 16 -12 14
-13 -17 -12 -19 0 -28 3 -21 6 6 2 12 22 12 44 0 32 -3 37 -17 32 -16 -6 -16
-5 -4 10 25 31 39 21 34 -25z m111 26 c7 -18 -5 -44 -30 -65 -16 -13 -15 -15
12 -20 25 -6 22 -7 -15 -8 l-45 -1 32 33 c33 34 42 67 19 67 -7 0 -18 -5 -25
-12 -7 -7 -12 -8 -12 -2 0 27 54 34 64 8z m-2317 -173 c23 -11 46 -28 52 -39
19 -35 13 -116 -10 -145 l-20 -27 29 -42 c62 -91 63 -88 -21 -88 l-73 0 -29
60 c-15 32 -32 57 -37 54 -4 -3 -8 -30 -8 -60 l0 -54 -60 0 -60 0 0 180 0 180
98 0 c73 0 107 -5 139 -19z m407 -34 l1 -47 -72 0 c-58 0 -73 -3 -73 -15 0
-12 14 -15 65 -15 l65 0 0 -50 0 -50 -65 0 c-50 0 -65 -3 -65 -15 0 -11 18
-15 78 -17 l77 -3 1 -47 2 -48 -144 0 -144 0 0 173 c0 96 3 177 7 181 4 3 65
5 136 4 l130 -3 1 -48z m334 33 c23 -10 42 -24 42 -30 0 -6 -12 -29 -27 -51
-19 -28 -31 -38 -42 -33 -57 23 -95 15 -109 -23 -22 -63 32 -109 93 -80 l34
16 27 -46 27 -46 -23 -19 c-31 -25 -97 -41 -143 -34 -95 16 -149 75 -155 171
-4 67 9 106 51 146 53 51 149 64 225 29z m222 -160 l0 -180 -65 0 -65 0 0 180
0 180 65 0 65 0 0 -180z m304 166 c54 -22 79 -63 73 -119 -3 -32 -12 -56 -27
-72 -26 -28 -91 -49 -127 -42 -22 4 -23 2 -23 -54 l0 -59 -65 0 -65 0 0 180 0
180 100 0 c63 0 113 -5 134 -14z m400 -39 l1 -47 -72 0 c-58 0 -73 -3 -73 -15
0 -12 14 -15 65 -15 l65 0 0 -50 0 -50 -65 0 c-50 0 -65 -3 -65 -15 0 -11 18
-15 78 -17 l77 -3 1 -47 2 -48 -144 0 -144 0 0 173 c0 96 3 177 7 181 4 3 65
5 136 4 l130 -3 1 -48z m273 42 c15 -6 35 -17 45 -26 15 -14 15 -17 -4 -49
-15 -26 -25 -33 -37 -28 -31 13 -69 16 -76 5 -4 -7 12 -19 41 -32 66 -30 94
-63 94 -111 0 -53 -47 -102 -108 -113 -52 -8 -132 9 -167 37 l-25 20 22 31
c12 18 22 33 23 34 1 2 20 -4 43 -13 39 -16 72 -14 72 4 0 5 -23 19 -51 32
-84 40 -109 93 -75 159 28 53 130 78 203 50z m-1313 -515 c30 -30 13 -74 -29
-74 -27 0 -45 18 -45 45 0 42 44 59 74 29z m127 -14 c6 31 6 30 7 -15 l1 -50
-29 34 -29 34 -4 -34 c-3 -26 -4 -22 -5 16 l-2 50 28 -35 27 -35 6 35z m71 -9
c-3 -25 0 -33 19 -40 24 -10 24 -10 -3 -10 -27 -1 -28 1 -28 45 0 25 4 43 8
40 5 -3 7 -19 4 -35z m95 -28 c-2 -16 -4 -5 -4 22 0 28 2 40 4 28 2 -13 2 -35
0 -50z m124 38 c6 30 6 29 7 -16 l1 -50 -29 33 -30 32 0 -30 c0 -16 -4 -30
-10 -30 -11 0 -13 33 -4 67 6 21 7 21 33 -9 l26 -32 6 35z m92 22 c-13 -2 -23
-11 -23 -19 0 -8 10 -15 23 -15 l22 -2 -22 -4 c-13 -2 -23 -11 -23 -18 0 -7
10 -16 23 -18 19 -4 18 -4 -5 -6 -27 -1 -28 1 -28 44 0 43 1 45 28 44 23 -2
24 -2 5 -6z"/>
<path d="M1577 1392 c-23 -25 -21 -68 3 -92 27 -27 46 -25 76 6 20 19 24 31
19 52 -12 51 -66 69 -98 34z"/>
<path d="M2000 1345 c0 -69 2 -75 20 -75 12 0 32 11 45 25 46 45 23 125 -36
125 l-29 0 0 -75z"/>
<path d="M384 1136 c-9 -25 0 -71 15 -71 21 0 35 29 27 58 -7 29 -33 36 -42
13z"/>
<path d="M482 1134 c4 -21 22 -23 26 -1 2 10 -3 17 -13 17 -10 0 -15 -6 -13
-16z"/>
<path d="M475 1090 c-4 -7 -3 -16 3 -22 14 -14 45 -2 40 15 -6 16 -34 21 -43
7z"/>
<path d="M827 893 c-4 -3 -7 -17 -7 -30 0 -18 6 -23 24 -23 28 0 37 17 24 43
-9 17 -29 23 -41 10z"/>
<path d="M2100 869 c0 -26 3 -30 22 -27 26 3 37 36 16 49 -25 17 -38 9 -38
-22z"/>
<path d="M1510 456 c-27 -33 18 -72 48 -42 13 13 14 20 6 34 -15 23 -38 26
-54 8z"/>
</g>
</svg>
